<svg width="26" height="27" viewBox="0 0 26 27" fill="none" xmlns="http://www.w3.org/2000/svg">
<path d="M25.3818 13.5616C25.3818 12.6815 25.3104 11.7967 25.1582 10.9309H12.9466V15.9164H19.9396C19.6494 17.5243 18.717 18.9467 17.3517 19.8506V23.0854H21.5237C23.9737 20.8305 25.3818 17.5005 25.3818 13.5616Z" fill="#757492"/>
<path d="M12.9474 26.2097C16.4391 26.2097 19.3838 25.0632 21.5293 23.0843L17.3573 19.8494C16.1965 20.6391 14.698 21.0863 12.9521 21.0863C9.57456 21.0863 6.71075 18.8076 5.68321 15.744H1.37798V19.0787C3.57579 23.4506 8.05227 26.2097 12.9474 26.2097Z" fill="#757492"/>
<path d="M5.67762 15.7441C5.1353 14.1362 5.1353 12.3951 5.67762 10.7872V7.45239H1.37715C-0.459115 11.1106 -0.458284 15.4205 1.37798 19.0787L5.67762 15.7441Z" fill="#757492"/>
<path d="M12.9474 5.44074C14.7932 5.4122 16.5771 6.10674 17.9139 7.38166L21.6102 3.68535C19.2697 1.48754 16.1632 0.279221 12.9474 0.317279C8.05227 0.317279 3.57579 3.07643 1.37798 7.45302L5.67845 10.7878C6.70124 7.71942 9.56981 5.44074 12.9474 5.44074Z" fill="#757492"/>
</svg>
