<svg width="17" height="13" viewBox="0 0 17 13" fill="none" xmlns="http://www.w3.org/2000/svg">
<path d="M16.0911 1.80817C15.516 2.0523 14.898 2.21722 14.2494 2.29141C14.9114 1.91161 15.4199 1.31019 15.6593 0.593523C15.0396 0.945277 14.3534 1.20062 13.623 1.33824C13.0381 0.741762 12.2047 0.369141 11.2824 0.369141C9.5115 0.369141 8.07566 1.74317 8.07566 3.438C8.07566 3.67853 8.10403 3.91279 8.15874 4.13739C5.49368 4.00942 3.1309 2.78759 1.54931 0.93084C1.27329 1.38409 1.11511 1.91124 1.11511 2.47368C1.11511 3.53845 1.68123 4.47778 2.54165 5.02811C2.01602 5.01218 1.52157 4.87411 1.08924 4.64427C1.08888 4.65706 1.08888 4.66992 1.08888 4.68286C1.08888 6.16976 2.19423 7.41006 3.66117 7.69218C3.3921 7.76234 3.10881 7.79981 2.81637 7.79981C2.60975 7.79981 2.40891 7.78052 2.21306 7.74476C2.62116 8.96397 3.80536 9.85125 5.20861 9.87593C4.11116 10.6991 2.72854 11.1898 1.22611 11.1898C0.967278 11.1898 0.712042 11.1752 0.461182 11.1468C1.8803 12.0177 3.56583 12.5257 5.37671 12.5257C11.2749 12.5257 14.5004 7.8494 14.5004 3.79379C14.5004 3.66073 14.4972 3.52842 14.4911 3.39671C15.1175 2.9641 15.6611 2.42365 16.091 1.80817H16.0911Z" fill="white"/>
</svg>
